<svg width="24" height="24" viewBox="0 0 24 24" fill="none" xmlns="http://www.w3.org/2000/svg">
<rect y="11.5806" width="16.3773" height="17.2552" rx="8.18866" transform="rotate(-45 0 11.5806)" fill="#C5E2D0" fill-opacity="0.4"/>
<g clip-path="url(#clip0_122_282)">
<path d="M14.8419 9.37233C14.8453 9.25705 14.8011 9.14465 14.7191 9.06262C14.6371 8.98058 14.5259 8.93761 14.4094 8.93978L10.0989 9.07394C9.8633 9.08081 9.67635 9.27771 9.68077 9.51194C9.68519 9.74617 9.8779 9.93131 10.1122 9.9232L13.3614 9.8237L9.06698 14.1181C8.89904 14.2861 8.89693 14.5542 9.06224 14.7195C9.22756 14.8848 9.49566 14.8827 9.6636 14.7147L13.958 10.4203L13.856 13.6695C13.8491 13.9051 14.033 14.0966 14.2673 14.101C14.5015 14.1054 14.6972 13.9172 14.7053 13.6829L14.8394 9.37235L14.8419 9.37233Z" fill="#51AB50"/>
</g>
<defs>
<clipPath id="clip0_122_282">
<rect width="8" height="9" fill="white" transform="translate(5.88037 11.5374) rotate(-45)"/>
</clipPath>
</defs>
</svg>
