<svg width="30" height="30" viewBox="0 0 30 30" fill="none" xmlns="http://www.w3.org/2000/svg">
<path d="M-2.62268e-06 15C-4.0711e-06 23.284 6.71601 30 15 30C23.284 30 30 23.284 30 15C30 6.71602 23.284 4.0711e-06 15 2.62268e-06C6.71602 1.17427e-06 -1.17427e-06 6.71602 -2.62268e-06 15ZM23.0273 15.9961L16.4648 22.5586L15.4687 23.5547L13.4824 21.5625L14.4785 20.5664L18.6387 16.4063L6.5625 16.4063L6.5625 13.5938L18.6387 13.5938L14.4785 9.4336L13.4824 8.4375L15.4687 6.45117L16.4648 7.44727L23.0273 14.0039L24.0234 15L23.0273 15.9961Z" fill="#153F2D"/>
</svg>
