<?xml version="1.0" encoding="UTF-8" standalone="no"?>
<svg
   width="19"
   height="17"
   viewBox="0 0 19 17"
   fill="none"
   version="1.1"
   id="svg2321"
   xmlns="http://www.w3.org/2000/svg"
   xmlns:svg="http://www.w3.org/2000/svg">
  <defs
     id="defs2325" />
  <path
     d="M8.09686 0.58491C8.4656 0.775528 8.60622 1.22864 8.4156 1.59738L5.86569 6.50034H13.1342L10.5843 1.59738C10.3937 1.22864 10.5374 0.775528 10.903 0.58491C11.2686 0.394291 11.7217 0.538036 11.9155 0.903649L14.8248 6.50034H15.9528H17.4997H17.7497C18.1653 6.50034 18.4996 6.8347 18.4996 7.25031C18.4996 7.66592 18.1653 8.00029 17.7497 8.00029H17.1247L15.3779 14.9844C15.156 15.875 14.356 16.5 13.4373 16.5H5.56257C4.64385 16.5 3.84388 15.875 3.62201 14.9844L1.8752 8.00029H1.25022C0.834608 8.00029 0.500244 7.66592 0.500244 7.25031C0.500244 6.8347 0.834608 6.50034 1.25022 6.50034H1.50021H3.04703H4.17512L7.0844 0.903649C7.27502 0.534912 7.72813 0.394291 8.09686 0.58491ZM3.42202 8.00029L5.07822 14.6219C5.13446 14.8438 5.33446 15.0001 5.56257 15.0001H13.4373C13.6654 15.0001 13.8654 14.8438 13.9217 14.6219L15.5779 8.00029H3.42202ZM7.50001 10.2502V12.7501C7.50001 13.1657 7.16565 13.5001 6.75003 13.5001C6.33442 13.5001 6.00006 13.1657 6.00006 12.7501V10.2502C6.00006 9.8346 6.33442 9.50024 6.75003 9.50024C7.16565 9.50024 7.50001 9.8346 7.50001 10.2502ZM9.49994 9.50024C9.91555 9.50024 10.2499 9.8346 10.2499 10.2502V12.7501C10.2499 13.1657 9.91555 13.5001 9.49994 13.5001C9.08433 13.5001 8.74997 13.1657 8.74997 12.7501V10.2502C8.74997 9.8346 9.08433 9.50024 9.49994 9.50024ZM12.9998 10.2502V12.7501C12.9998 13.1657 12.6655 13.5001 12.2498 13.5001C11.8342 13.5001 11.4999 13.1657 11.4999 12.7501V10.2502C11.4999 9.8346 11.8342 9.50024 12.2498 9.50024C12.6655 9.50024 12.9998 9.8346 12.9998 10.2502Z"
     fill="#C5E2D0"
     id="path2319"
     style="fill:#ffffff" />
</svg>
