<?xml version="1.0" encoding="UTF-8" standalone="no"?>
<svg
   width="21"
   height="17"
   viewBox="0 0 21 17"
   fill="none"
   version="1.1"
   id="svg2117"
   xmlns="http://www.w3.org/2000/svg"
   xmlns:svg="http://www.w3.org/2000/svg">
  <defs
     id="defs2121" />
  <path
     d="M11.2281 1.06928C11.1281 0.666166 10.7188 0.422424 10.3188 0.522421L6.31892 1.52239C5.91581 1.62238 5.67206 2.02862 5.77206 2.43173C5.87206 2.83484 6.27829 3.07858 6.6814 2.97859L10.6813 1.97862C11.0844 1.87862 11.3281 1.47239 11.2281 1.06928ZM14.6811 3.97855C15.0842 3.87856 15.328 3.47232 15.228 3.06921C15.128 2.6661 14.7218 2.42236 14.3186 2.52235L6.31892 4.52228C5.91581 4.62228 5.67206 5.02852 5.77206 5.43163C5.87206 5.83474 6.27829 6.07848 6.6814 5.97848L14.6811 3.97855ZM14.6811 6.97845C15.0842 6.87845 15.328 6.47222 15.228 6.06911C15.128 5.66599 14.7218 5.42225 14.3186 5.52225L6.31892 7.52218C5.91581 7.62218 5.67206 8.02841 5.77206 8.43153C5.87206 8.83464 6.27829 9.07838 6.6814 8.97838L14.6811 6.97845ZM13.4999 13.5001C13.4999 12.947 13.0531 12.5001 12.5 12.5001H10V9.69398L8.50009 10.069V12.5001C7.94699 12.5001 7.50013 12.947 7.50013 13.5001V14.5001C7.50013 15.0532 7.94699 15.5 8.50009 15.5H9.75005V15.75C9.75005 16.1656 10.0844 16.5 10.5 16.5C10.9156 16.5 11.25 16.1656 11.25 15.75V15.5H12.5C13.0531 15.5 13.4999 15.0532 13.4999 14.5001V13.5001ZM14.6811 9.97835C15.0842 9.87835 15.328 9.47211 15.228 9.069C15.128 8.66589 14.7218 8.42215 14.3186 8.52215L12.3187 9.02213L11.8187 9.14713L11.5687 9.20962C11.2219 9.29712 10.9906 9.61273 11 9.95647V12.5001H12.5V10.5221L12.6812 10.4752L14.6811 9.97522V9.97835ZM2.16593 0.625542C1.8222 0.397425 1.35659 0.491172 1.12534 0.83491C0.894103 1.17865 0.98785 1.64426 1.33471 1.8755L2.83466 2.87547C3.1784 3.10671 3.64401 3.01296 3.87525 2.6661C4.10649 2.31923 4.01275 1.85675 3.66588 1.62551L2.16593 0.625542ZM19.6653 1.8755C20.0091 1.64426 20.1028 1.17865 19.8747 0.83491C19.6466 0.491172 19.1779 0.397425 18.8341 0.625542L17.3342 1.62551C16.9904 1.85675 16.8967 2.32236 17.1248 2.6661C17.3529 3.00984 17.8216 3.10358 18.1654 2.87547L19.6653 1.8755ZM1.25034 5.50038C0.83473 5.50038 0.500366 5.83474 0.500366 6.25035C0.500366 6.66596 0.83473 7.00032 1.25034 7.00032H3.25027C3.66588 7.00032 4.00025 6.66596 4.00025 6.25035C4.00025 5.83474 3.66588 5.50038 3.25027 5.50038H1.25034ZM17.7498 5.50038C17.3342 5.50038 16.9998 5.83474 16.9998 6.25035C16.9998 6.66596 17.3342 7.00032 17.7498 7.00032H19.7497C20.1653 7.00032 20.4997 6.66596 20.4997 6.25035C20.4997 5.83474 20.1653 5.50038 19.7497 5.50038H17.7498ZM3.66588 10.8752C4.00962 10.6439 4.10337 10.1783 3.87525 9.8346C3.64713 9.49086 3.1784 9.39712 2.83466 9.62523L1.33471 10.6252C0.990974 10.8564 0.897228 11.3221 1.12534 11.6658C1.35346 12.0095 1.8222 12.1033 2.16593 11.8752L3.66588 10.8752ZM18.1654 9.62836C17.8216 9.39712 17.356 9.49086 17.1248 9.83773C16.8936 10.1846 16.9873 10.6471 17.3342 10.8783L18.8341 11.8783C19.1779 12.1095 19.6435 12.0158 19.8747 11.6689C20.1059 11.3221 20.0122 10.8596 19.6653 10.6283L18.1654 9.62836Z"
     fill="#C5E2D0"
     id="path2115"
     style="fill:#ffffff" />
</svg>
