<?xml version="1.0" encoding="UTF-8" standalone="no"?>
<svg
   width="19"
   height="17"
   viewBox="0 0 19 17"
   fill="none"
   version="1.1"
   id="svg1846"
   xmlns="http://www.w3.org/2000/svg"
   xmlns:svg="http://www.w3.org/2000/svg">
  <defs
     id="defs1850" />
  <path
     d="M1.25 0.499268C0.834375 0.499268 0.5 0.833643 0.5 1.24927C0.5 1.66489 0.834375 1.99927 1.25 1.99927H17.75C18.1656 1.99927 18.5 1.66489 18.5 1.24927C18.5 0.833643 18.1656 0.499268 17.75 0.499268H1.25ZM1.5 2.99927V9.74927C1.5 10.7149 2.28437 11.4993 3.25 11.4993H8.75V12.9399L6.46875 15.2211C6.175 15.5149 6.175 15.9899 6.46875 16.2805C6.7625 16.5711 7.2375 16.5743 7.52812 16.2805L9.49687 14.3118L11.4656 16.2805C11.7594 16.5743 12.2344 16.5743 12.525 16.2805C12.8156 15.9868 12.8187 15.5118 12.525 15.2211L10.2437 12.9399V11.4993H15.75C16.7156 11.4993 17.5 10.7149 17.5 9.74927V2.99927H16V9.74927C16 9.88677 15.8875 9.99927 15.75 9.99927H9.5H3.25C3.1125 9.99927 3 9.88677 3 9.74927V2.99927H1.5Z"
     fill="#C5E2D0"
     id="path1844"
     style="fill:#ffffff" />
</svg>
