<?xml version="1.0" encoding="UTF-8" standalone="no"?>
<svg
   width="23"
   height="15"
   viewBox="0 0 23 15"
   fill="none"
   version="1.1"
   id="svg1732"
   xmlns="http://www.w3.org/2000/svg"
   xmlns:svg="http://www.w3.org/2000/svg">
  <defs
     id="defs1736" />
  <path
     d="M5.27907 2.44754L4.11389 5.35714H5.07148V6.96429H2.92862C2.63398 6.96429 2.39291 7.20536 2.39291 7.5V10.7143H3.11278C3.55474 9.4654 4.74336 8.57143 6.14291 8.57143C7.54246 8.57143 8.73443 9.4654 9.17304 10.7143H13.8271C14.269 9.4654 15.4576 8.57143 16.8572 8.57143C18.2567 8.57143 19.4487 9.4654 19.8873 10.7143H20.6072V9.64286C20.6072 8.16295 19.4085 6.96429 17.9286 6.96429H14.7143V5.35714H16.2579L13.6596 2.10938C13.4052 1.79129 13.0201 1.60714 12.615 1.60714H6.52126C5.97215 1.60714 5.47996 1.94196 5.27907 2.44754ZM2.35273 5.43415L3.78577 1.85156C4.23443 0.733259 5.3159 0 6.52126 0H12.6117C13.5056 0 14.3527 0.408482 14.9119 1.10491L18.3304 5.37723C20.5101 5.57812 22.2143 7.41295 22.2143 9.64286V11.25C22.2143 11.8426 21.7355 12.3214 21.1429 12.3214H20.028C19.7735 13.8415 18.4509 15 16.8572 15C15.2634 15 13.9409 13.8415 13.6864 12.3214H9.31367C9.0592 13.8415 7.73666 15 6.14291 15C4.54916 15 3.22661 13.8415 2.97215 12.3214H1.8572C1.26456 12.3214 0.785767 11.8426 0.785767 11.25V7.5C0.785767 6.51562 1.44871 5.68527 2.35273 5.43415ZM15.3405 12.3214C15.4087 12.5231 15.5163 12.7093 15.657 12.869C15.7978 13.0288 15.9689 13.159 16.1604 13.252C16.3519 13.3451 16.5599 13.3992 16.7725 13.4112C16.9851 13.4232 17.1979 13.3928 17.3987 13.3218C17.5994 13.2508 17.784 13.1407 17.9418 12.9977C18.0996 12.8548 18.2275 12.6819 18.3179 12.4892C18.4083 12.2964 18.4596 12.0876 18.4686 11.8749C18.4776 11.6621 18.4443 11.4497 18.3706 11.25C18.3024 11.0483 18.1948 10.8622 18.054 10.7024C17.9133 10.5427 17.7422 10.4125 17.5507 10.3194C17.3592 10.2263 17.1511 10.1722 16.9385 10.1602C16.726 10.1483 16.5131 10.1786 16.3124 10.2496C16.1116 10.3206 15.927 10.4308 15.7692 10.5737C15.6114 10.7166 15.4836 10.8895 15.3931 11.0823C15.3027 11.275 15.2515 11.4838 15.2424 11.6966C15.2334 11.9093 15.2667 12.1217 15.3405 12.3214ZM7.75005 11.7857C7.75005 11.3595 7.58073 10.9507 7.27933 10.6493C6.97793 10.3479 6.56915 10.1786 6.14291 10.1786C5.71667 10.1786 5.30789 10.3479 5.00649 10.6493C4.70509 10.9507 4.53577 11.3595 4.53577 11.7857C4.53577 12.212 4.70509 12.6207 5.00649 12.9221C5.30789 13.2235 5.71667 13.3929 6.14291 13.3929C6.56915 13.3929 6.97793 13.2235 7.27933 12.9221C7.58073 12.6207 7.75005 12.212 7.75005 11.7857ZM11.8751 2.29687C12.0525 2.47098 12.086 2.74219 11.9588 2.95312L10.8405 4.82143H12.5715C12.8092 4.82143 13.0201 4.97879 13.0871 5.20982C13.1541 5.44085 13.0603 5.68527 12.8561 5.8125L8.57036 8.49107C8.35943 8.62165 8.08822 8.59152 7.91077 8.41741C7.73331 8.2433 7.69983 7.9721 7.82706 7.76116L8.94536 5.89286H7.21434C6.97661 5.89286 6.76568 5.73549 6.69871 5.50446C6.63175 5.27344 6.7255 5.02902 6.92974 4.90179L11.2155 2.22321C11.4264 2.09263 11.6976 2.12277 11.8751 2.29687Z"
     fill="#C5E2D0"
     id="path1730"
     style="fill:#ffffff" />
</svg>
