<?xml version="1.0" encoding="UTF-8" standalone="no"?>
<svg
   width="19"
   height="17"
   viewBox="0 0 19 17"
   fill="none"
   version="1.1"
   id="svg1932"
   xmlns="http://www.w3.org/2000/svg"
   xmlns:svg="http://www.w3.org/2000/svg">
  <defs
     id="defs1936" />
  <path
     d="M2.5 2C2.225 2 2 2.225 2 2.5V6.5C2 6.775 2.225 7 2.5 7H16.5C16.775 7 17 6.775 17 6.5V2.5C17 2.225 16.775 2 16.5 2H2.5ZM0.5 2.5C0.5 1.39688 1.39687 0.5 2.5 0.5H16.5C17.6031 0.5 18.5 1.39688 18.5 2.5V6.5C18.5 7.60313 17.6031 8.5 16.5 8.5H2.5C1.39687 8.5 0.5 7.60313 0.5 6.5V2.5ZM4.25 4.5H14.75C15.1656 4.5 15.5 4.83437 15.5 5.25C15.5 5.66563 15.1656 6 14.75 6H4.25C3.83437 6 3.5 5.66563 3.5 5.25C3.5 4.83437 3.83437 4.5 4.25 4.5ZM12 9.5V12.75C12 13.4406 12.5594 14 13.25 14C13.9406 14 14.5 13.4406 14.5 12.75C14.5 12.2875 14.25 11.8844 13.875 11.6656C13.5156 11.4594 13.3937 11 13.6031 10.6406C13.8125 10.2812 14.2687 10.1594 14.6281 10.3687C15.4469 10.8438 16 11.7312 16 12.75C16 14.2688 14.7687 15.5 13.25 15.5C11.7312 15.5 10.5 14.2688 10.5 12.75V9.5H12ZM7 13.75V9.5H8.5V13.75C8.5 15.2688 7.26875 16.5 5.75 16.5C4.23125 16.5 3 15.2688 3 13.75C3 12.7312 3.55312 11.8438 4.37187 11.3687C4.73125 11.1625 5.19062 11.2844 5.39687 11.6406C5.60312 11.9969 5.48125 12.4594 5.125 12.6656C4.75 12.8844 4.5 13.2875 4.5 13.75C4.5 14.4406 5.05937 15 5.75 15C6.44062 15 7 14.4406 7 13.75Z"
     fill="#C5E2D0"
     id="path1930"
     style="fill:#ffffff" />
</svg>
