<?xml version="1.0" encoding="UTF-8" standalone="no"?>
<svg
   width="16"
   height="17"
   viewBox="0 0 16 17"
   fill="none"
   version="1.1"
   id="svg51"
   xmlns="http://www.w3.org/2000/svg"
   xmlns:svg="http://www.w3.org/2000/svg">
  <defs
     id="defs55" />
  <path
     d="M9.60312 6.96875C12.1937 6.68437 14.2406 4.60625 14.4781 2H14.25C11.8531 2 9.8125 3.53437 9.05937 5.67188C8.78438 5.14687 8.45312 4.65312 8.07187 4.2C9.25312 2 11.5781 0.5 14.25 0.5H15C15.5531 0.5 16 0.946875 16 1.5C16 5.05 13.3562 7.98125 9.93125 8.4375C9.86562 7.93125 9.75625 7.44062 9.60312 6.96562V6.96875ZM1.5 4V4.5C1.5 7.5375 3.9625 10 7 10H7.25V9.5C7.25 6.4625 4.7875 4 1.75 4H1.5ZM8.75 9.5V10V11.5V15.75C8.75 16.1656 8.41562 16.5 8 16.5C7.58437 16.5 7.25 16.1656 7.25 15.75V11.5H7C3.13438 11.5 0 8.36562 0 4.5V3.5C0 2.94688 0.446875 2.5 1 2.5H1.75C5.61562 2.5 8.75 5.63438 8.75 9.5Z"
     fill="#C5E2D0"
     id="path49"
     style="fill:#ffffff" />
</svg>
